<svg width="112" height="22" viewBox="0 0 112 22" fill="none" xmlns="http://www.w3.org/2000/svg"><path d="M18.9488 7.84795C19.0434 8.38443 19.0965 8.93574 19.0965 9.49917C19.0965 14.7454 14.8216 18.9983 9.54824 18.9983C7.31002 18.9983 5.25361 18.2298 3.62566 16.9467C6.55545 16.1435 9.94159 14.5178 12.9781 12.5759C15.1879 11.1626 17.2968 9.52923 18.9488 7.84795Z" fill="url(#paint0_linear_733_111)"></path><path d="M9.54824 0C13.2898 0 16.5266 2.14206 18.0925 5.2598C16.5818 7.02865 14.2912 8.91358 11.6882 10.5783C8.27664 12.7602 4.54562 14.4312 1.74678 14.9491C1.74167 14.9501 1.73634 14.9497 1.73124 14.9507C0.641764 13.4073 0 11.5283 0 9.49917C0 4.25292 4.27489 0 9.54824 0Z" fill="url(#paint1_linear_733_111)"></path><path d="M27.0883 17.1238V2.05174H29.4945L29.5836 17.1238H27.0883ZM37.0249 17.1238L36.9358 2.05174H39.431V17.1238H37.0249ZM36.8244 17.1238L30.4971 7.32694L27.6676 2.05174H29.695L36.0446 11.8929L38.8741 17.1238H36.8244Z" fill="url(#paint2_linear_733_111)"></path><path d="M51.9118 10.0532L50.5527 11.1614C50.5527 9.81678 50.2854 8.78243 49.7507 8.05838C49.216 7.33433 48.451 6.97231 47.4559 6.97231C46.4459 6.97231 45.6736 7.34172 45.1389 8.08055C44.619 8.80459 44.3591 9.85372 44.3591 11.2279C44.3591 12.5726 44.6339 13.6143 45.1834 14.3532C45.7478 15.0772 46.5425 15.4392 47.5673 15.4392C48.3248 15.4392 48.956 15.2619 49.461 14.9073C49.9809 14.5526 50.3448 14.0059 50.5527 13.2671H53.048C52.7212 14.6413 52.0677 15.6757 51.0874 16.3702C50.122 17.0647 48.9486 17.4119 47.5673 17.4119C46.4088 17.4119 45.4062 17.1681 44.5596 16.6805C43.713 16.1781 43.0595 15.4614 42.599 14.5305C42.1535 13.5996 41.9307 12.4987 41.9307 11.2279C41.9307 9.88328 42.1535 8.75288 42.599 7.83673C43.0595 6.90582 43.7056 6.20393 44.5373 5.73108C45.3691 5.24346 46.3419 4.99965 47.4559 4.99965C48.5996 4.99965 49.5799 5.25085 50.3968 5.75325C51.2137 6.24087 51.8449 6.93537 52.2905 7.83673C52.7361 8.7381 52.9589 9.82417 52.9589 11.095V11.6712H42.9109V10.0532H51.9118Z" fill="url(#paint3_linear_733_111)"></path><path d="M60.9609 4.99965C62.0155 4.99965 62.9141 5.25085 63.6567 5.75325C64.4142 6.24087 64.9935 6.95014 65.3945 7.88106C65.7955 8.7972 65.996 9.89805 65.996 11.1836C65.996 13.1932 65.543 14.7374 64.637 15.816C63.731 16.8799 62.5056 17.4119 60.9609 17.4119C59.6242 17.4119 58.5548 16.8799 57.7527 15.816C56.9655 14.7521 56.5719 13.208 56.5719 11.1836C56.5719 9.92761 56.7502 8.83415 57.1066 7.90323C57.4631 6.97231 57.9755 6.25565 58.6439 5.75325C59.3123 5.25085 60.0846 4.99965 60.9609 4.99965ZM60.6713 6.99447C59.7059 6.99447 58.9707 7.3565 58.4657 8.08055C57.9755 8.78982 57.7305 9.82417 57.7305 11.1836C57.7305 12.543 57.983 13.5922 58.4879 14.331C59.0078 15.055 59.7356 15.4171 60.6713 15.4171C61.607 15.4171 62.32 15.055 62.8101 14.331C63.3151 13.607 63.5676 12.5578 63.5676 11.1836C63.5676 9.83895 63.3151 8.80459 62.8101 8.08055C62.3051 7.3565 61.5922 6.99447 60.6713 6.99447ZM57.7305 22H55.3466V5.30995H57.7305V22Z" fill="url(#paint4_linear_733_111)"></path><path d="M68.6257 13.5996V2.58369H71.0096V13.4666C71.0096 14.1463 71.1432 14.6487 71.4106 14.9738C71.6928 15.2989 72.2424 15.4614 73.0593 15.4614H73.5271V17.1903C73.4083 17.2641 73.2078 17.3159 72.9256 17.3454C72.6582 17.3897 72.3612 17.4119 72.0344 17.4119C70.8907 17.4119 70.0367 17.0942 69.4723 16.4588C68.9079 15.8234 68.6257 14.8703 68.6257 13.5996ZM67.0216 7.14963V5.30995H73.5717V7.14963H67.0216Z" fill="url(#paint5_linear_733_111)"></path><path d="M85.2105 5.30995V17.1238H82.8489V5.30995H85.2105ZM82.8489 12.2254H83.7623C83.7029 13.3927 83.4727 14.3606 83.0717 15.1289C82.6855 15.8973 82.1657 16.4736 81.5121 16.8578C80.8735 17.2272 80.1382 17.4119 79.3065 17.4119C78.5044 17.4119 77.8064 17.2567 77.2122 16.9464C76.6181 16.6214 76.1577 16.1485 75.8309 15.5279C75.519 14.9073 75.3631 14.1315 75.3631 13.2006V5.30995H77.7469V12.713C77.7469 13.2745 77.8286 13.7621 77.992 14.1758C78.1554 14.5896 78.4079 14.9073 78.7495 15.1289C79.0911 15.3358 79.5219 15.4392 80.0417 15.4392C80.4724 15.4392 80.8586 15.3506 81.2002 15.1733C81.5567 14.9959 81.8537 14.7595 82.0914 14.464C82.329 14.1537 82.5147 13.8064 82.6484 13.4222C82.782 13.0381 82.8489 12.6391 82.8489 12.2254Z" fill="url(#paint6_linear_733_111)"></path><path d="M88.1127 17.1238V5.30995H90.4966V17.1238H88.1127ZM90.4966 10.1862H89.5609C89.6351 9.03363 89.8653 8.07316 90.2515 7.30478C90.6525 6.5364 91.1798 5.96012 91.8333 5.57593C92.4869 5.19174 93.2369 4.99965 94.0835 4.99965C94.9153 4.99965 95.6282 5.16219 96.2223 5.48727C96.8165 5.79758 97.2769 6.27043 97.6037 6.90581C97.9304 7.52643 98.0938 8.30219 98.0938 9.23311V17.1238H95.7322V9.72074C95.7322 9.14445 95.6431 8.65683 95.4648 8.25786C95.2866 7.84412 95.0267 7.52643 94.6851 7.30478C94.3435 7.08313 93.8979 6.97231 93.3483 6.97231C92.9027 6.97231 92.5017 7.06836 92.1452 7.26045C91.7888 7.43777 91.4843 7.67419 91.2318 7.96972C90.9941 8.26525 90.8085 8.60511 90.6748 8.9893C90.556 9.37349 90.4966 9.77245 90.4966 10.1862Z" fill="url(#paint7_linear_733_111)"></path><path d="M110.395 10.0532L109.036 11.1614C109.036 9.81678 108.768 8.78243 108.234 8.05838C107.699 7.33433 106.934 6.97231 105.939 6.97231C104.929 6.97231 104.157 7.34172 103.622 8.08055C103.102 8.80459 102.842 9.85372 102.842 11.2279C102.842 12.5726 103.117 13.6143 103.666 14.3532C104.231 15.0772 105.025 15.4392 106.05 15.4392C106.808 15.4392 107.439 15.2619 107.944 14.9073C108.464 14.5526 108.828 14.0059 109.036 13.2671H111.531C111.204 14.6413 110.551 15.6757 109.57 16.3702C108.605 17.0647 107.432 17.4119 106.05 17.4119C104.892 17.4119 103.889 17.1681 103.043 16.6805C102.196 16.1781 101.542 15.4614 101.082 14.5305C100.636 13.5996 100.414 12.4987 100.414 11.2279C100.414 9.88328 100.636 8.75288 101.082 7.83673C101.542 6.90582 102.189 6.20393 103.02 5.73108C103.852 5.24346 104.825 4.99965 105.939 4.99965C107.083 4.99965 108.063 5.25085 108.88 5.75325C109.697 6.24087 110.328 6.93537 110.773 7.83673C111.219 8.7381 111.442 9.82417 111.442 11.095V11.6712H101.394V10.0532H110.395Z" fill="url(#paint8_linear_733_111)"></path><defs><linearGradient id="paint0_linear_733_111" x1="0" y1="10.8543" x2="116" y2="10.8543" gradientUnits="userSpaceOnUse"><stop stop-color="#2B65EC"></stop><stop offset="0.38132" stop-color="#82A5F9"></stop><stop offset="1" stop-color="#ADC6FF"></stop></linearGradient><linearGradient id="paint1_linear_733_111" x1="0" y1="10.8543" x2="116" y2="10.8543" gradientUnits="userSpaceOnUse"><stop stop-color="#2B65EC"></stop><stop offset="0.38132" stop-color="#82A5F9"></stop><stop offset="1" stop-color="#ADC6FF"></stop></linearGradient><linearGradient id="paint2_linear_733_111" x1="0" y1="10.8543" x2="116" y2="10.8543" gradientUnits="userSpaceOnUse"><stop stop-color="#2B65EC"></stop><stop offset="0.38132" stop-color="#82A5F9"></stop><stop offset="1" stop-color="#ADC6FF"></stop></linearGradient><linearGradient id="paint3_linear_733_111" x1="0" y1="10.8543" x2="116" y2="10.8543" gradientUnits="userSpaceOnUse"><stop stop-color="#2B65EC"></stop><stop offset="0.38132" stop-color="#82A5F9"></stop><stop offset="1" stop-color="#ADC6FF"></stop></linearGradient><linearGradient id="paint4_linear_733_111" x1="0" y1="10.8543" x2="116" y2="10.8543" gradientUnits="userSpaceOnUse"><stop stop-color="#2B65EC"></stop><stop offset="0.38132" stop-color="#82A5F9"></stop><stop offset="1" stop-color="#ADC6FF"></stop></linearGradient><linearGradient id="paint5_linear_733_111" x1="0" y1="10.8543" x2="116" y2="10.8543" gradientUnits="userSpaceOnUse"><stop stop-color="#2B65EC"></stop><stop offset="0.38132" stop-color="#82A5F9"></stop><stop offset="1" stop-color="#ADC6FF"></stop></linearGradient><linearGradient id="paint6_linear_733_111" x1="0" y1="10.8543" x2="116" y2="10.8543" gradientUnits="userSpaceOnUse"><stop stop-color="#2B65EC"></stop><stop offset="0.38132" stop-color="#82A5F9"></stop><stop offset="1" stop-color="#ADC6FF"></stop></linearGradient><linearGradient id="paint7_linear_733_111" x1="0" y1="10.8543" x2="116" y2="10.8543" gradientUnits="userSpaceOnUse"><stop stop-color="#2B65EC"></stop><stop offset="0.38132" stop-color="#82A5F9"></stop><stop offset="1" stop-color="#ADC6FF"></stop></linearGradient><linearGradient id="paint8_linear_733_111" x1="0" y1="10.8543" x2="116" y2="10.8543" gradientUnits="userSpaceOnUse"><stop stop-color="#2B65EC"></stop><stop offset="0.38132" stop-color="#82A5F9"></stop><stop offset="1" stop-color="#ADC6FF"></stop></linearGradient></defs></svg>